P3
5 5
255
0
0
0

102
51
0

102
51
0

102
51
0

0
51
255

255
255
102

0
0
0

102
102
102

0
51
255

255
0
51

255
255
102

102
102
102

0
51
255

102
102
102

255
0
51

255
255
102

0
51
255

102
102
102

0
0
0

255
0
51

0
51
255

51
255
51

51
255
51

51
255
51

0
0
0
